<?xml version="1.0" encoding="utf-8"?>
<!-- Generator: Adobe Illustrator 25.0.1, SVG Export Plug-In . SVG Version: 6.00 Build 0)  -->
<svg version="1.1" id="Layer_1" xmlns="http://www.w3.org/2000/svg" xmlns:xlink="http://www.w3.org/1999/xlink" x="0px" y="0px"
	 viewBox="0 0 2000 700" style="enable-background:new 0 0 2000 700;" xml:space="preserve">
<style type="text/css">
	.st0{display:none;}
	.st1{display:inline;fill:#131620;}
	.st2{fill:#FFFFFF;}
	.st3{fill:#1AD4A8;}
	.st4{fill:#17AF87;}
	.st5{fill:#D8D8D8;}
</style>
<g id="Layer_4" class="st0">
	<polygon class="st1" points="-20.3,-331.9 -20.3,978.8 2138.4,936 2077,-321.2 	"/>
</g>
<g id="Layer_5">
</g>
<g id="Layer_8">
</g>
<g id="Layer_9">
</g>
<g>
	<g id="Layer_7">
		<path class="st2" d="M1650.8,169.4c49.7,0,99.4,0,149.1,0c31.9,0,62.5-28.1,61-61c-1.5-33-26.8-61-61-61
			c-49.7,0-76.2-0.3-114.5-0.2"/>
		<path class="st2" d="M1649.4,268.4h152.5c34.2,0,59.5,28,61,61c1.5,32.9-29.1,61-61,61h-152.5"/>
		<path class="st2" d="M1731.6,311.6c-9.9,30.5,11.5,67.8,42.6,75c47,11,96.9-3.7,130.4-38.8c31.3-32.7,46-78.5,45.3-123.2
			c0-1.9-0.1-3.8-0.2-5.7h-117.8c0,2.4-0.1,4.7-0.2,7c0.5,23.1-7.2,44.3-27.6,42.7h-26.6C1756.4,273.4,1739,289,1731.6,311.6"/>
		<g>
			<path class="st2" d="M1834.4,229.1c-3,10.8-6.4,22.1-14,30.7c-8.1,9.2-18.6,10.4-30.2,10.8c-11.7,0.4-11.8,18.7,0,18.3
				c15.4-0.6,29.4-2.8,41-13.9c11.4-10.9,16.6-26.2,20.8-41C1855.3,222.6,1837.6,217.6,1834.4,229.1L1834.4,229.1z"/>
		</g>
		<path class="st2" d="M1731.6,126.3c-9.9-30.5,11.5-67.8,42.6-75c47-11,96.9,3.7,130.4,38.8c31.3,32.7,46,78.5,45.3,123.2
			c0,1.9-0.1,3.8-0.2,5.7h-117.8c0-2.4-0.1-4.7-0.2-7c0.5-23.1-7.2-44.3-27.6-42.7h-26.6C1756.4,164.6,1739,149.1,1731.6,126.3"/>
		<g>
			<path class="st2" d="M1834.4,208.9c-3-10.8-6.4-22.1-14-30.7c-8.1-9.2-18.6-10.4-30.2-10.8c-11.7-0.4-11.8-18.7,0-18.3
				c15.4,0.6,29.4,2.8,41,13.9c11.4,10.9,16.6,26.2,20.8,41C1855.3,215.4,1837.6,220.4,1834.4,208.9L1834.4,208.9z"/>
		</g>
	</g>
	<g id="Layer_6">
		<g>
			<path class="st3" d="M982.9,164.9c16.5,0,33.9-7.2,45.6-18.9c11.2-11.2,19.6-29.5,18.9-45.6c-0.7-16.7-6.2-34-18.9-45.6
				c-12.6-11.6-28.1-18.9-45.6-18.9c-16.5,0-33.9,7.2-45.6,18.9c-11.2,11.2-19.6,29.5-18.9,45.6c0.7,16.7,6.2,34,18.9,45.6
				C949.9,157.6,965.4,164.9,982.9,164.9L982.9,164.9z"/>
		</g>
	</g>
	<g id="Layer_2_1_">
		<g>
			<path class="st4" d="M1001.7,146.6c-34.2,0-59.5-27.9-61-61c-0.7-15.2,7.3-32.5,17.9-43.1c0.9-0.9,1.9-1.8,3-2.7
				C952.5,43,944,48.2,937.4,55c-11.2,11.2-19.6,29.5-18.9,45.6c0.7,16.7,6.2,34,18.9,45.6C950,157.8,965.5,165,983,165
				c16.5,0,33.9-7.2,45.6-18.9c3.1-3.1,5.9-6.7,8.5-10.7C1026.7,142.4,1014,146.6,1001.7,146.6z"/>
		</g>
	</g>
	<g id="Layer_16">
		<g>
			<path class="st2" d="M981.7,222.4c-23.2,0-44.3-7.8-62.5-20.9v405c0,31.5,29.3,61.7,63.7,60.3c34.5-1.5,63.7-26.5,63.7-60.3
				V200.1C1028.2,214.1,1004.5,222.4,981.7,222.4z"/>
		</g>
		<g>
			<path class="st2" d="M216.1,602c5.8-6.2,12.6-10.6,20.5-13.2c7.6-4,15.8-5.8,24.6-5.5c4-0.5,8-0.6,11.9-0.4
				c2.1-4.9,4.6-9.6,7-14.3c0.1-0.2,0.2-0.5,0.2-0.7c0-8-0.9-15.9-2-23.9c-2.1-16.8-0.8-30.8,1.7-47.9c0.4-2.6,1.2-5.3,2.2-7.8
				c-8-20.9-13.3-42.5-6.9-65.2c1-3.4,2.2-6.7,3.7-9.8c-34.4-112.6-68.7-225.2-103.1-337.8c-9.8-32.2-47.6-54.5-80.4-42.8
				c-32.8,11.8-53.2,45.9-42.7,80.5C103.9,280.5,155,448,206,615.2C208.9,610.2,212.3,605.8,216.1,602z"/>
		</g>
		<g>
			<path class="st2" d="M487.7,113.2c-52,170.5-104,341-156.1,511.4c-9.8,32.2-47.6,54.5-80.4,42.8c-32.9-11.7-53.4-45.9-42.8-80.4
				c52-170.5,104-341,156.1-511.4c9.8-32.2,47.6-54.5,80.4-42.8C477.8,44.4,498.2,78.6,487.7,113.2L487.7,113.2z"/>
		</g>
		<g>
			<path class="st2" d="M516.9,612.2c2.2-5.7,5.2-11.3,9.4-16.6c5.2-6.7,11.9-12.8,19.5-17.2c1.1-5.9,2.5-11.8,4.5-17.6
				c5.7-16.7,13.2-32.7,20.4-48.8c3.5-9.1,6.5-18.4,8.4-28c2.4-24.8,3.1-50.1,11-73.6C556.1,298.8,522,187.2,488,75.7
				c-9.8-32.2-47.6-54.5-80.4-42.8c-32.9,11.7-53.4,45.9-42.8,80.4C415.4,279.5,466.1,445.8,516.9,612.2z"/>
		</g>
		<g>
			<path class="st2" d="M799.4,113.2c-52,170.5-104,341-156.1,511.4c-9.8,32.2-47.6,54.5-80.4,42.8c-32.9-11.7-53.4-45.9-42.8-80.4
				c52-170.5,104-341,156.1-511.4c9.8-32.2,47.6-54.5,80.4-42.8C789.5,44.4,810,78.6,799.4,113.2L799.4,113.2z"/>
		</g>
		<g>
			<path class="st5" d="M1306.9,185.9c-0.8,0.8-1.5,1.7-2.3,2.6c-0.3,0.4-0.6,0.8-0.8,1.2c0,0.1-0.1,0.1-0.1,0.2
				c4.5-4.5,5.6-6.1,5.2-6C1308.3,184.6,1307.6,185.2,1306.9,185.9z"/>
			<path class="st2" d="M1468.7,96.4C1391,11.9,1240.2,27,1186,130.4c-26,49.5-30,107.8-8.4,159.6c11.5,27.6,29.8,49.8,51.4,68.6
				c0.5-1.4,1-2.8,1.6-4.1c2-4.8,4.5-9.2,7.4-13.2c-1.3-9.1-0.6-18.4,1.4-27.3c1.5-6.7,4.4-12.5,8.1-17.8c0.3-5.4,1.1-10.8,2.3-16.2
				c3-13.3,10.4-25.2,19.8-34.8c5.6-13.6,11.7-27.8,23.6-35.4c0-0.1,2.5-2.9,2.5-3c1.8-4.9,1.6-3.5,3.1-8.2c1.5-2.9,3.1-5.8,4.8-8.6
				c-0.8,0.8-1.6,1.6-2.6,2.6c1.2-1.2,2.4-2.6,3.5-4c1.8-2.4,3.9-4.4,4.3-4.6c0.7-0.7,1.4-1.3,2.1-1.9c2.8-1.7,5.7-3.4,8.6-4.9
				c3.8-1.2,7.7-2.3,11.6-3.1c4.9-0.3,9.7-0.2,14.5,0c4.6,1,9.1,2.2,13.6,3.7c3.2,1.7,6.4,3.5,9.5,5.5c2.4,2.3,4.8,4.6,7,7
				c23.4,25.5,69.6,25.7,93,0C1493.5,162.9,1493.7,123.7,1468.7,96.4z"/>
		</g>
		<g>
			<path class="st2" d="M1622.2,110.2c0,164.1,0,328.2,0,492.3c0,33,29,64.7,63.1,63.1c34.2-1.5,63.1-27.7,63.1-63.1
				c0-164.1,0-328.2,0-492.3c0-33-29-64.7-63.1-63.1C1651.2,48.7,1622.2,74.8,1622.2,110.2L1622.2,110.2z"/>
		</g>
	</g>
	<g id="Layer_3">
		<g>
			<path class="st2" d="M1481.6,410.5c-11.1-27.6-26.5-52.5-48.8-72.5c-18-16.2-38.2-30.1-59-42.5c-18.4-10.9-37.3-21.2-54.8-33.6
				c0.9,0.8,1.9,1.6,3,2.6c-1.2-1-2.4-2-3.5-3c-0.5-0.4-1-0.7-1.6-1.1c-3.1-2.3-7.2-6.3-2.4-2.3c-2.7-2.5-5.4-5.1-7.9-7.8
				c0.5,0.9-2-1.5-4-4.3c-1.1-1.3-2.2-2.7-3.4-3.9c0,0,0,0,0-0.1c1,1,1.8,1.9,2.6,2.7c-1.5-2.3-2.8-4.7-4.1-7.1
				c-1.3-3.9-2.3-7.8-3.2-11.7c-0.2-4.7-0.2-9.4,0-14.2c0.3-1.7,0.7-3.4,1.2-5c-32.4,11.2-97.4,47.1-69,150.1
				c16.8,14.8,35.7,27.5,55.2,39.1c17.9,10.5,36.1,20.5,53,32.6c-0.7-0.6-1.5-1.3-2.4-2.1c1,0.9,2,1.7,2.9,2.5
				c0.7,0.5,1.4,1,2.1,1.5c3.1,2.3,6.8,6.1,2.7,2.7c2.7,2.5,5.3,5.1,7.8,7.7c-0.4-0.7,1.4,1.1,3.2,3.4c1.4,1.6,2.7,3.3,4.1,4.9
				c-1.1-1.2-2.1-2.2-2.9-3.1c1.8,2.8,3.4,5.8,4.9,8.7c1.6,4.9,3,9.9,4,14.9c0.4,5.9,0.4,11.7,0,17.6c-1.2,5.6-2.6,11.1-4.5,16.5
				c-1.7,3.4-3.5,6.7-5.6,9.9c0.9-1,2-2.1,3.2-3.5c-1.4,1.5-2.8,3.2-4.1,4.8c-1.9,2.6-4,4.7-3.3,3.6c-1.5,1.5-3,3-4.6,4.4
				c-3.7,2.3-7.5,4.5-11.3,6.5c-5.1,1.7-10.4,3.1-15.7,4.3c-5.8,0.3-11.5,0.4-17.3,0c-5.2-1.1-10.4-2.5-15.5-4.2
				c-2-1-3.9-2.1-5.8-3.2c-1.8-1-3.4-2.2-5.2-3.3c-0.3-0.2-0.6-0.3-0.8-0.5c-12.5-9.6-25.6-16-42.3-16c-16.2,0-35.6,7.3-46.7,19.5
				c-22.2,24.4-28.5,70.6,0,94.2c23.2,19.2,48.3,34.4,77.9,41.3c29.9,7,58.3,6.7,88.3,1.2c51.9-9.5,101.8-46.7,124.4-95.1
				C1495.5,519,1502.1,461.5,1481.6,410.5z"/>
		</g>
	</g>
</g>
</svg>
